<svg width="48" height="48" viewBox="0 0 48 48" fill="none" xmlns="http://www.w3.org/2000/svg">
  <defs>
    <linearGradient id="faviconGradient" x1="0%" y1="0%" x2="100%" y2="100%">
      <stop offset="0%" style="stop-color:#3B82F6;stop-opacity:1" />
      <stop offset="100%" style="stop-color:#6366F1;stop-opacity:1" />
    </linearGradient>
  </defs>
  
  <!-- Background circle -->
  <circle cx="24" cy="24" r="22" fill="url(#faviconGradient)"/>
  
  <!-- Key body -->
  <path d="M12 16C12 13.7909 13.7909 12 16 12H32C34.2091 12 36 13.7909 36 16V32C36 34.2091 34.2091 36 32 36H16C13.7909 36 12 34.2091 12 32V16Z" fill="white"/>
  
  <!-- Key hole -->
  <circle cx="24" cy="24" r="4" fill="url(#faviconGradient)"/>
  <rect x="22" y="24" width="4" height="8" fill="url(#faviconGradient)"/>
  
  <!-- Key teeth -->
  <rect x="16" y="20" width="2" height="4" fill="url(#faviconGradient)"/>
  <rect x="30" y="20" width="2" height="4" fill="url(#faviconGradient)"/>
  <rect x="18" y="28" width="2" height="2" fill="url(#faviconGradient)"/>
  <rect x="28" y="28" width="2" height="2" fill="url(#faviconGradient)"/>
</svg> 